<svg id="Camada_1" data-name="Camada 1" xmlns="http://www.w3.org/2000/svg" viewBox="0 0 435 438.07"><defs><style>.cls-1{fill:#d6edf0;}.cls-2{fill:#ddf0f5;}.cls-10,.cls-11,.cls-12,.cls-13,.cls-14,.cls-15,.cls-16,.cls-17,.cls-18,.cls-19,.cls-2,.cls-20,.cls-21,.cls-22,.cls-23,.cls-24,.cls-25,.cls-26,.cls-3,.cls-4,.cls-5,.cls-6,.cls-7{fill-rule:evenodd;}.cls-3{fill:#cfeaf1;}.cls-4{fill:#e067b8;}.cls-5{fill:#fea89b;}.cls-6{fill:#bb544f;}.cls-7{fill:#d3695c;}.cls-8{fill:#310933;}.cls-10,.cls-9{fill:#021649;}.cls-11{fill:#fb896e;}.cls-12{fill:#56b2da;}.cls-13{fill:#68c8e0;}.cls-14{fill:#c458a5;}.cls-15{fill:#fff;}.cls-16{fill:#59bcd4;}.cls-17{fill:#ffc351;}.cls-18{fill:#eab04e;}.cls-19{fill:#d8994d;}.cls-20{fill:#f58f4d;}.cls-21{fill:#18306e;}.cls-22{fill:#e05aa4;}.cls-23{fill:#be5752;}.cls-24{fill:#d4736b;}.cls-25{fill:#4eb3cc;}.cls-26{fill:#db6274;}</style></defs><title>friends</title><rect class="cls-1" width="435" height="438"/><path class="cls-2" d="M375.77,391.42c59-80,14.78-110.79-.27-150.75-12-31.87,4.94-66,30.22-89.49C451.27,108.94,439.57-20.6,349.45,3.76,302.43,16.45,244.22,51,164.84,35c-18.49-3.72-38.54-12.69-58.43-18.8C46.55-2.17-6.85,32.12,20.64,97.51c29.9,71.12,19.28,83.24-9.14,149.61C-25.09,332.5,59.28,392.6,59.28,392.6l147.06,17.82Z"/><path class="cls-2" d="M406.41,164.53s-26.65,28.79-23.64,58,27.08,34.39,41.7,11.19,4.72-92-18.06-69.22Z"/><path class="cls-3" d="M375.77,391.42c18.34-24.89,26.71-45,29.06-62.13L338.52,395.6ZM393.9,276.78c-2.09-4-4.26-8-6.43-11.89l-141,141,20.62-2.31Zm-14.44-27c-1.45-3-2.78-6-4-9.12a61.79,61.79,0,0,1-3.67-16.13L188.16,408.21l18.18,2.21,14.07-1.57ZM427,114.05a122.13,122.13,0,0,0,4.56-28L117.88,399.7l20.94,2.53Zm-13.37-93c-.2-.25-.41-.5-.61-.73l-7.6-7.61c-13.29-11-31.82-15.49-56-9-4.2,1.12-8.49,2.44-12.87,3.86L11.43,332.78c10.54,24.35,27.78,42.44,38.43,52ZM167.93,35.63,164.84,35c-9.18-1.85-18.74-5-28.48-8.44L32.78,130.2c4.08,13.46,5.88,24.48,5.75,34.83ZM97.81,13.94c-54.82-12.41-101,19.68-79,79Z"/><path class="cls-3" d="M382.73,213.64a47.48,47.48,0,0,0,0,8.92c.78,7.61,3,13.57,6.09,17.84L431.29,198c-.36-10.33-2.19-20.42-5.27-27.62Zm21.37,34.62c7-.38,14.46-5.13,20.37-14.51a38.28,38.28,0,0,0,4.2-10.07Z"/><path class="cls-4" d="M66,142.26c-14.52,6.3-23.61,25.49-28,43.6-2.53,10.33,24.36,25.93,24.7,32.94.32,6.29,10.22-1.24-9-30.94-2.48-3.83,10.36-15.33,11.75-19.39C69.71,156,67.11,148,66,142.26Z"/><path class="cls-5" d="M68.75,360.67l.57,25.05,6.41-1.49L78,354.83Z"/><path class="cls-5" d="M103.62,355,110,387.24l4.52-.57-.94-30Z"/><path class="cls-6" d="M71.33,380.17a12.36,12.36,0,0,1,4,.74c1.4.57,2,5.38,3.86,6.88a2,2,0,0,1,1.73.1c.85.52,3.06,2.14,3.17,4.67s-9.67,1.87-10.28,2-6.21-.55-6.21-.55l.37-1.46s.08-4.84.06-7.73c0-3.68.59-4.75,3.27-4.66Z"/><path class="cls-7" d="M71.73,394.47c-1.22-.11-2.64-.27-3.46-.38a2,2,0,0,1-.21-.92V388.3c0-.8,0-1.63,0-2.4a2,2,0,0,1,2-1.83h0a2.08,2.08,0,0,1,2.07,2.06v7a2.1,2.1,0,0,1-.46,1.3Z"/><path class="cls-6" d="M110.26,380.17a12.17,12.17,0,0,1,4,.74c1.4.57,2,5.38,3.86,6.88a2,2,0,0,1,1.74.1c.86.52,3.07,2.14,3.16,4.67s-9.66,1.87-10.28,2-6.21-.55-6.21-.55l.37-1.46s.09-4.84.07-7.73c0-3.68.57-4.75,3.28-4.66Z"/><path class="cls-7" d="M110.63,394.47c-1.21-.11-2.63-.27-3.43-.38a1.94,1.94,0,0,1-.24-.92V388.3c0-.8,0-1.63,0-2.4a2.08,2.08,0,0,1,2-1.83h0a2.08,2.08,0,0,1,2.07,2.06v7a1.94,1.94,0,0,1-.47,1.3Z"/><path class="cls-8" d="M95.84,244c-.63,8.61-9,2.49-9.6,12.12-2,36.38-4.44,77-8.58,108.52-.11.9-9.14.78-9.34-.18-1.28-13.79-3.25-30.43-3.86-50.89-.16-5.52,2-13.87,1.64-19.47-.73-11.18-4.49-24-5.06-33.35-.48-7.81-5.59-32.32,6.41-41.34,10-7.55,29.83-6.27,28.39,24.59Z"/><path class="cls-8" d="M110.19,232.41c1.1,41.1,5,92.42,3.74,132.27,0,.9-8.5.78-8.8-.18-.09-.23-.16-.47-.23-.68-3.65-10.58-4.7-26.62-8-51.23-.57-4.25,1.5-14.74.72-19.11-3.49-19.15-13-41-15.8-51.76a2.3,2.3,0,0,0,.59-.83c10.13-21.75,26.25-37.58,27.78-8.48Z"/><path class="cls-5" d="M67.26,209.33c-3,8.87-7.36,16.4-10,14.71s-3.21-4.52-1.32-3.77,1.64,1.37,3.2-3.26,4.14-8,5.27-8.19a7.43,7.43,0,0,1,2.84.51Z"/><path class="cls-9" d="M190.83,109.44a.26.26,0,0,1,.32.21.27.27,0,0,1-.23.3s-8.17,1.2-8.81,17.1a.28.28,0,0,1-.29.25.27.27,0,0,1-.25-.27c.66-16.35,9.24-17.59,9.26-17.59Z"/><path class="cls-10" d="M363.36,121.87s12.61,8.1,20.1,27.69c17.51,45.81-25.37,52.77-25.41,52.72-2.06-4.7,17.81-23.84,14.39-31.69-7.41-17-14.64-36.63-9.08-48.72Z"/><path class="cls-11" d="M363.86,119.14l0-1.08a5.71,5.71,0,0,0-3.92-1.8,4.39,4.39,0,0,0-4.06,2.22c-.35.91,4.45,3.25,4.67,3.26a41,41,0,0,0,3.33-2.6Z"/><path class="cls-12" d="M353.57,205.7l9.18,10.15c-1.92,27.83-2.81,50-4,79-.2,4.9,1.1,20.73.9,25.63-.9,22-3.7,39.67-4.91,60.84-.13,2-6.07,2.16-8,1.43-2.74-1-3.28-149.28-20.53-165.53-9.63-9.08,27.32-11.47,27.32-11.47Z"/><path class="cls-13" d="M359.12,214.21c-.66,9.37-22,21.58-22.61,30.73-1.3,20-2.41,39.86-3.19,60.8-.14,3.49,1.82,13.4,1.71,16.95-.64,19.74-3.06,34.22-3,57.26,0,2-6.07,2.1-8,1.41-2.67-1-8.41-132-12.5-160.63-.86-5.91,49.07-27.14,47.61-6.52Z"/><path class="cls-10" d="M318.81,389.66c-.29,4.36.51,2.85,3.54,2.85h4.92c2.17,0,6.89.57,6.8-1.2-.23-4.77.82-14.08-5.72-14.42-4.22-.21-9.26,8.42-9.54,12.77Z"/><path class="cls-10" d="M345.25,392.51h4.92c2.17,0,6.89.57,6.8-1.2-.39-8-.68-11.89-2.69-13.42-6.31-4.81-18,14.62-9,14.62Z"/><path class="cls-4" d="M334.73,116.26s-18.42-2.41-24.27,5.29-1.18,39.65-1,60.63-1.55,36.39.39,38.37,49.55,5.09,53.33-1.82c5.39-9.86.1-26.6.05-49.76,0-12.79,3.76-25.49,3.22-33.94a67.57,67.57,0,0,0-1.08-9.94c-2.32-8-17-8.1-17-8.1Z"/><path class="cls-14" d="M334.73,116.26l-.08,0,.86.87-7.25,7.25L321,117.11l.78-.78a33,33,0,0,0-3.74.75l0,0-7.25,7.25-1.26-1.26a14.79,14.79,0,0,0-.77,2.17l.55.55-.9.93a34.12,34.12,0,0,0-.52,3.45l2.9-2.9,7.25,7.25-7.25,7.26-3.29-3.31c0,1,0,2,0,3l1.79,1.8L307.61,145c0,.94.07,1.88.1,2.83l3.1-3.08,7.25,7.25-7.25,7.24-2.63-2.61c.07,1,.12,2.08.19,3.13l1,1-.85.86c.07.92.12,1.85.18,2.77l2.15-2.15,7.25,7.25-7.25,7.24-1.58-1.58c0,1,.07,2,.1,3v0h0c0,1,0,1.94.06,2.89l1.42-1.43,7.25,7.27-7.25,7.24-1.48-1.47c0,1-.05,1.94-.07,2.88l.07.07-.07.07c0,1-.05,2-.07,3l1.62-1.64,7.25,7.27-7.25,7.24-1.92-1.92c0,1,0,2,0,2.9l.48.48-.48.5c0,1.07,0,2,.07,2.87l1.89-1.89,7.25,7.25-.21.23c1.15.11,2.38.23,3.7.32l-.55-.55,7.26-7.25,7.25,7.25-1.16,1.16c1.77,0,3.55.05,5.31.05l-1.21-1.21,7.26-7.25,7.25,7.25-.55.55c1.26-.14,2.44-.3,3.54-.5l-.05-.05,7.25-7.25,1.23,1.23a17.17,17.17,0,0,0,.58-2.35l-.34-.36.5-.48a30.74,30.74,0,0,0,.34-3.29l-2.31,2.31-7.25-7.24,7.25-7.27,2.06,2.07c-.07-1-.16-2.12-.27-3.21l-.32-.32.27-.28c-.07-.88-.16-1.77-.25-2.69l-1.49,1.49-7.25-7.24,7.25-7.27.42.43c-.07-1.18-.14-2.37-.19-3.58l-.23.21-7.25-7.24,7.25-7.25.32.3c.1-1.33.23-2.65.39-3.95l-.71.69L355.9,152l7.25-7.25,2.33,2.31c.12-.87.25-1.72.35-2.58l-1.21-1.21,1.54-1.53c.12-1.1.21-2.17.24-3.19l-3.25,3.26-7.25-7.26,7.25-7.25,2.88,2.88c-.12-1.32-.25-2.44-.37-3.33l-1-1,.7-.69v0a7.51,7.51,0,0,0-.93-2l-1.24,1.25-6-6a29.09,29.09,0,0,0-4.49-1l-7,7-7.26-7.25.62-.62Zm27,96.79-7.27-7.24-7.25,7.24,7.25,7.27Zm-7.27-94.48-7.25,7.25,7.25,7.27,7.27-7.27Zm7.27,77.05-7.27-7.26-7.25,7.26,7.25,7.25ZM353,204.35l-7.25-7.27-7.26,7.27,7.26,7.24Zm-8.73,8.7L337,205.81l-7.27,7.24,7.27,7.27ZM337,118.57l-7.27,7.25,7.27,7.27,7.24-7.27Zm8.72,8.73-7.26,7.25,7.26,7.26,7.25-7.26Zm8.71,8.72-7.25,7.25,7.25,7.25,7.27-7.25Zm7.27,42.15-7.27-7.25-7.25,7.25,7.25,7.25ZM353,186.9l-7.25-7.27-7.26,7.27,7.26,7.24Zm-8.73,8.72L337,188.36l-7.27,7.26,7.27,7.25Zm-8.72,8.73-7.25-7.27L321,204.35l7.26,7.24Zm-8.72,8.7-7.25-7.24-7.25,7.24,7.25,7.27Zm-7.25-94.48-7.25,7.25,7.25,7.27,7.25-7.27Zm8.72,8.73L321,134.55l7.26,7.26,7.25-7.26ZM337,136l-7.27,7.25,7.27,7.25,7.24-7.25Zm8.72,8.73L338.45,152l7.26,7.24L353,152Zm8.71,8.72-7.25,7.25,7.25,7.25,7.27-7.25Zm-1.46,16-7.25-7.25-7.26,7.25,7.26,7.24Zm-8.73,8.72L337,170.92l-7.27,7.25,7.27,7.25Zm-8.72,8.73-7.25-7.27L321,186.9l7.24,7.24Zm-8.72,8.72-7.25-7.26-7.25,7.26,7.25,7.25ZM319.54,136l-7.25,7.25,7.25,7.25,7.25-7.25Zm8.72,8.73L321,152l7.24,7.24,7.25-7.24Zm8.73,8.72-7.27,7.25L337,168l7.24-7.25Zm-1.48,16-7.25-7.25L321,169.45l7.26,7.24Zm-8.72,8.72-7.25-7.25-7.25,7.25,7.25,7.25Zm-7.25-24.7-7.25,7.25,7.25,7.25,7.25-7.25Z"/><path class="cls-15" d="M110.38,226.92l1,.5s0,3.8,0,4.31-.16,1-1,.91c-6.16-.85-41.36-5.57-49-1.5,0,0-.37-.08-.44-.78s.19-3.68.19-3.68,8.48-4.54,9.8-4.71,39.56,4.95,39.56,4.95Z"/><path class="cls-13" d="M62.45,168.07c2.21,5.08,4,10.21,3.59,15.78-.55,7.05-5,37-5.55,39.62s.53,3.21.53,3.21c10.37-3.46,49.59,1.35,49.59,1.35a3.54,3.54,0,0,0,1.71-3.44c-.3-2.31-4.89-32.12-4.54-35.4s4.49-12.73,4.49-12.73a30.33,30.33,0,0,0-.59-5.16c-6.55-40-37.07-37.84-48.86-25.41-4.48,9.49-.37,22.18-.37,22.18Z"/><path class="cls-16" d="M62.45,168.07c.14.33.28.63.41,1l3.47-3.49-5.41-5.43a41.67,41.67,0,0,0,1.53,8Zm1.26,3A33.7,33.7,0,0,1,66,179.67l1.84,1.83,7.25-7.25L67.81,167Zm2.41,11.65a3.85,3.85,0,0,0,0,.48l.23-.25Zm-.34,3.72c-.27,2.4-.68,5.68-1.18,9.28l3.21,3.2,7.25-7.25-7.25-7.24Zm-1.53,11.86c-.22,1.6-.45,3.24-.7,4.88l2.78-2.78Zm-1.18,8.31c-.21,1.5-.44,3-.64,4.38l5.38,5.38,7.25-7.25-7.25-7.26Zm-1,6.93c-.75,5.11-1.37,9-1.55,9.9,0,.11,0,.2-.05.3l5.89-5.89Zm-1.28,12.82a1.09,1.09,0,0,0,.26.29c2.71-.91,7.41-1.25,12.86-1.25l-6.07-6.09Zm18.34-.89c4.31.14,8.81.41,13.05.73l-6.89-6.89Zm16.45,1c5.77.5,10.65,1,13.2,1.32L110,226.6l-7.25-7.26Zm16.72-2.23c-.21-1.53-1-6.71-1.85-12.64l-6.25,6.25,7.26,7.25Zm-2.65-18.41c-.48-3.42-.93-6.78-1.27-9.62l-4.18,4.19Zm-1.57-12.27a37.09,37.09,0,0,1-.28-4.08l-5.06-5-7.25,7.24,7.25,7.25Zm.21-6.53a109,109,0,0,1,4-10.53l-.81-.8L104.17,183Zm3.62-14.73c-.07-.34-.13-.69-.2-1a68.9,68.9,0,0,0-2.61-10.65l-4.9,4.88,7.26,7.25Zm-3.6-13.83a41.65,41.65,0,0,0-3.17-6.52l-2.4-2.42-7.25,7.24,7.25,7.27ZM94.16,141a2.36,2.36,0,0,1-.23-.13l-7.19,7.2L94,155.34l7.25-7.26Zm-2.22-1.07a25.56,25.56,0,0,0-12.65-1.87L78,139.37l7.25,7.25Zm-17.29-1a26.83,26.83,0,0,0-9.6,4.88l2.76,2.78,7.25-7.25Zm-11.17,6.27c-.23.21-.44.43-.66.66a22.51,22.51,0,0,0-2,7.69l5.48-5.5ZM110,209.15l-7.25-7.26-7.25,7.26,7.25,7.25Zm-8.73,8.73L94,210.61l-7.24,7.27L94,225.13Zm0-17.45L94,193.18l-7.24,7.25L94,207.68Zm-8.72,8.72-7.25-7.26L78,209.15l7.25,7.25Zm-8.73,8.73-7.25-7.27-7.24,7.27,7.24,7.25Zm-7.25-77-7.24,7.25,7.24,7.26,7.25-7.26Zm8.73,8.73L78,156.8l7.25,7.27,7.25-7.27ZM94,158.28l-7.24,7.25L94,172.78l7.25-7.25Zm8.73,8.73-7.25,7.24,7.25,7.25,7.25-7.25Zm-1.48,16L94,175.73,86.74,183,94,190.23Zm-8.72,8.72-7.25-7.24L78,191.7,85.26,199Zm-8.73,8.73-7.25-7.25-7.24,7.25,7.24,7.25Zm-16-50.87-7.09,7.08c0,.11,0,.23,0,.34l7.07,7.09,7.25-7.27Zm8.72,8.72-7.24,7.25,7.24,7.25,7.25-7.25ZM85.26,167,78,174.25l7.25,7.25,7.25-7.25Zm-1.48,16-7.25-7.25L69.29,183l7.24,7.25Z"/><path class="cls-10" d="M306.29,124.72c1.71-3.1,8.48-7.55,11.88-7.68s8.6,36.18-10.54,56.8-23.85-9.34-19.89-20.1,18.55-29,18.55-29Z"/><path class="cls-5" d="M100.86,97.74h0A6.92,6.92,0,0,0,94,104.65V123a6.92,6.92,0,0,0,6.91,6.91h0a6.91,6.91,0,0,0,6.91-6.91V104.65a6.92,6.92,0,0,0-6.91-6.91Z"/><path class="cls-9" d="M104,127a49.86,49.86,0,0,0,2-17.41c6.6-2.69,5.66-9.13,4.72-12.29C109.14,89.5,100.64,82,92,88.18c0,0-10.16-2.92-18,4.18-4.61,4.17-5.82,10.22-5.61,16.58a78.17,78.17,0,0,0,1.82,12.89,25.27,25.27,0,0,1-3.45,11.91c-2.84,4.4-6.88,11-8.16,17.49-1.19,6.12.05,12.2,7,16.33,11.82,15.86,42.16,6.82,46.88-8.21C116.92,145.34,98.58,146.39,104,127Zm6.87-25.46A7.63,7.63,0,0,1,106,109c0-.27,0-.54-.07-.81A8.77,8.77,0,0,0,110.84,101.55ZM61.72,156.89a20,20,0,0,0,2.79,9c-5.25-3.88-6.16-9.17-5.12-14.51,1.24-6.37,5.25-12.85,8-17.22a23.23,23.23,0,0,0,3.12-8.47C70,134.87,61,144.57,61.72,156.89Z"/><path class="cls-4" d="M106,144.59c14.8,2.17,22.28,20,27.24,42.27.86,3.79-8.67,2.08-8.67,2.08l-12.23-12.25S99.65,155,106,144.59Z"/><path class="cls-5" d="M278.92,70.57h0a10,10,0,0,1,8.71,11.13l-2.44,19.76A10,10,0,0,1,274,110.15h0A10,10,0,0,1,265.33,99l2.44-19.76a10,10,0,0,1,11.15-8.69Z"/><path class="cls-11" d="M275.32,99.66,273.69,113a20.26,20.26,0,0,0,14.69,2.33l.89-7.57c.69-6-13.57-11.13-13.95-8.12Z"/><path class="cls-11" d="M63.29,140.1c-4.87-1-5.67,3.79-4.9,6.07,1.16,3.47,5.71,6.29,7.62,3.56,3-4.23-1.25-9.33-2.72-9.63Z"/><path class="cls-10" d="M294.06,212.29l12.64,3.43L314,380.09s-3.85,3.07-5.4,2.69-5.52-1-5.52-1L265.37,214.91Z"/><polygon class="cls-10" points="279.79 238.38 258 381.84 246.51 381.18 244.14 211.33 270.16 206.96 279.79 238.38"/><path class="cls-13" d="M297.65,113.21s9.46,1.75,21.39,10.6,42.86,13.17,40.65-4.45c0,0,2.8-2.57,5.43-.5s5.95,8,.45,20.76-39.39,26.48-64.27,5-3.65-31.4-3.65-31.4Z"/><path class="cls-17" d="M295.11,112.64a13.33,13.33,0,0,1,1.31.25,21.52,21.52,0,0,1,4.76,1.68,15.8,15.8,0,0,1,9,11.84c2.06,12.25-3.86,32.83-3,42.11a253.48,253.48,0,0,1,1.21,27.33c-.09,10.08,1.05,18-1.69,19.87s-48.52,10-62.84-2.26c0,0-3-1.49-.76-11.68s2.83-46,3.77-60.31c.69-10.56-2.62-22.67,17.17-27.22,7-1.62,17-2.3,31.07-1.61Z"/><path class="cls-18" d="M246.58,146.6c.06-1,.09-1.91.15-2.8,2.42-6.55,20.46-22.93,20.46-22.93.19,8.37-1.78,22.13-3,27.14s10.93,11.48,24.3,18.09-34.86-3.6-34.86-3.6-6.09-10-7-15.9Z"/><path class="cls-11" d="M188.5,214.46s-5.93,12.7-5.59,16.31c3.7,39.64,11.27,98.49,19.5,138.14a1.59,1.59,0,0,0,1.51.59c1-.12,3.85-.41,4.13-.82s.55.25.64-1.39C210.78,326.8,204.6,304.88,212,262c1.21-7,2.09-13.48,2-17.71-.34-12.7-7.1-29.56-7.1-29.56Z"/><path class="cls-11" d="M233.6,214.46s2.14,12.32,1.82,16c-4.18,46.06-5.48,92.66-14.62,138,0,0,0,1.47-1,1.35s-4.53.46-4.81.05-.5-.64-.59-2.26c-2-39.87,2.17-63.35-1.89-103.42-1.94-19.34-1.24-31.82-6.94-52Z"/><path class="cls-19" d="M146.65,217.58c-3.91,54.09-8.72,96.72-8.54,162.57,0,2.08-6.57,2.21-8.66,1.48-1.4-.5-5.68-31.47-7.67-66.69-.29-4.82,1.89-9.93,1.6-14.85-1.89-32.66-3.9-65.65-5.91-78.86-.93-6.15,30.73-25,29.18-3.65Z"/><path class="cls-18" d="M163.11,205.7l10,10.36c-3.94,54.81-5.43,109.33-8.66,164.09-.12,2.08-6.57,2.21-8.65,1.48-1.35-.48-4.29-32.39-6.63-67.44-.33-5.09,1.38-9.33,1-14.51-2.91-37.07-7.71-74.39-16.65-82.28-10.47-9.26,29.63-11.7,29.63-11.7Z"/><path class="cls-20" d="M128.65,378.81c3.24-2.68,10-.71,11.45,3.46.8,2.28,2.46,3.31,2.64,5.79s-.64,4.45-3.83,4.45h-5.15c-2.26,0-7.21.57-7.12-1.2.09-1.46.55-8.33.45-8.83-.32-1.57,1.56-3.67,1.56-3.67Z"/><path class="cls-20" d="M167.11,382.27c.79,2.28,2.44,3.31,2.62,5.79s-.64,4.45-3.83,4.45h-5.14c-2.26,0-7.21.57-7.11-1.2s.18-9.36.77-10.2c3.2-4.59,10.84-4.17,12.69,1.16Z"/><path class="cls-17" d="M133.07,133.46l2.74-5.34c.54-1,9.87-16.55,2.3-12.29-20.18,11.33-33.8,27.89-74.08,23.93,0,0-4,1-4,9.71,13.7,14.24,57.84,7.94,68.06-8.76,7.92-13,2.47-12.06,4.95-7.25Z"/><path class="cls-18" d="M60.12,147.81c0,.54-.06,1.07-.06,1.66,12.79,13.32,52.18,8.69,65.62-5.61-2.33-5.06-4.35-8.87-4.35-8.87-5.27,6.61-33,25.45-59.54,13.57Z"/><path class="cls-10" d="M139.16,115.55s-10.92,2.56-16,8.6-7.3,26.15-5.84,46.11.7,50.68-.53,58.57a4.11,4.11,0,0,0,2.08,3.94c17.79,10.56,43.08-.43,54.67-.43,2.31,0,3.52.26,2.31-7.87-2.15-14.34,1.32-47.55,1.48-73.31.11-15.07,2.1-28.37-6.85-31.75a64.05,64.05,0,0,0-18.91-4c-4.3,0-8.59.18-12.36.18Z"/><path class="cls-21" d="M118.06,198.2c0,13.55-.61,26-1.32,30.63a4.11,4.11,0,0,0,2.08,3.94c17.79,10.56,43.08-.43,54.67-.43,2.31,0,3.52.26,2.31-7.87-1-6.63-.78-17.26-.26-29.31-27.69,7.1-46,6-57.48,3Z"/><path class="cls-5" d="M153,72.54h0a10,10,0,0,0-10,10v20a10,10,0,0,0,10,10h0a10,10,0,0,0,10-10v-20a10,10,0,0,0-10-10Z"/><path class="cls-11" d="M153,101.89v13.48a20.28,20.28,0,0,1-14.87.51l0-7.63c.06-6,14.84-9.39,14.84-6.36Z"/><path class="cls-5" d="M123.58,160.85s-5.2-.75-7,0-3,2.87-3.49,5.65,1.46,8.22,4.39,9.22c0,0,.52-2.44,3.42-1.76s11.59-9.78,2.64-13.12Z"/><path class="cls-4" d="M205.54,137.68c-6-6.54-1-4.77-8.12-.48-26.87,16.31-32.16,20.35-75.16,22.51a18.12,18.12,0,0,0-.53,14.92s53.79,17.07,74.2-13.25,9.61-23.7,9.61-23.7Z"/><path class="cls-22" d="M121.12,172.9a16.31,16.31,0,0,0,.61,1.73s53.79,17.07,74.2-13.25c3.47-5.16,6-9.26,7.92-12.48-3.31-2.21-5.06-3.64-5.06-3.64l-16,13.77c-15.41,13.23-46.87,14.78-61.65,13.87Z"/><path class="cls-10" d="M186,238l-4.24.25s3,28.36,3.77,33.26,25,3.86,25.45,3.2a17.93,17.93,0,0,0,1-3.84s.45,3.84.62,4.08,6.38,4.45,21.46-1.11a2.56,2.56,0,0,0,.57-1.41c.18-1.08,3.24-38.31,3.24-38.31l-51.25,4.16Z"/><path class="cls-11" d="M224.58,386.56l-.36-1.44s-1.41-.61-2.51-6.41-1.35-7.91-.91-10.29-3.92-2.94-4.52-2.41a14.87,14.87,0,0,1-1.85,1.28s-.57,5.2-.57,6.75,5.82,13.61,10.72,12.52Z"/><path class="cls-23" d="M213.73,373.12s4.9-1.55,6,.88,1.39,9.91,3.8,11.4c0,0,.19-.37,1.05-.28S227,389.71,227,391s-1.9,1.55-4.08,1.55h-6.3c-1.18,0-1.92-1.26-2.58-3.77s-1.68-15.35-.29-15.63Z"/><path class="cls-24" d="M213.11,379.4v12.07a1.5,1.5,0,0,0,1.39,1v0h3.15v0a1.51,1.51,0,0,0,1.39-1V379.4Z"/><path class="cls-11" d="M198.54,386.56l.36-1.44s1.41-.61,2.49-6.41,1.37-7.91.93-10.29,3.91-2.94,4.52-2.41a13.47,13.47,0,0,0,1.85,1.28s.57,5.2.57,6.75-5.82,13.61-10.72,12.52Z"/><path class="cls-23" d="M209.37,373.12s-4.9-1.55-6,.88-1.41,9.91-3.81,11.4c0,0-.18-.37-1-.28s-2.45,4.59-2.4,5.85,1.9,1.55,4.08,1.55h6.3c1.18,0,1.9-1.26,2.58-3.77s1.68-15.35.27-15.63Z"/><path class="cls-24" d="M210,379.4v12.07a1.5,1.5,0,0,1-1.39,1v0h-3.15v0a1.5,1.5,0,0,1-1.39-1V379.4Z"/><path class="cls-11" d="M206.63,111.41h0A7.4,7.4,0,0,1,214,118.8v14.27a7.38,7.38,0,0,1-7.37,7.37h0a7.4,7.4,0,0,1-7.39-7.37V118.8a7.42,7.42,0,0,1,7.39-7.39Z"/><path class="cls-13" d="M214,130.79c12,5,21.95,25.48,22.22,30.22.95,16.68,1.5,29.62,1.82,36.66.35,8.33,3.68,23.88,1.46,32-.5.44-.82.69-.82.69S227.51,241.06,208,241.72c-19,.66-25.89-6.41-26.23-6.76-4.88-6.88-4.27-28-4-37.29.2-6.54,1-19.94,1.34-36.72.23-12.28,14.61-27.21,20.12-30.16,2.15,2.4,12.62,2.13,14.76,0Z"/><path class="cls-25" d="M214,130.79c6.55,2.74,12.5,10.06,16.58,16.93a89,89,0,0,1-48.17,2.07c4.63-8.89,13-16.92,16.83-19,2.15,2.4,12.62,2.13,14.76,0ZM233.89,154a24.32,24.32,0,0,1,2.33,7l0,.14c-11,4.63-32.48,10.84-57.2,3.33,0-1.16.06-2.33.08-3.53a18.63,18.63,0,0,1,.58-4.25c23.26,7.24,43.49,1.69,54.19-2.69Zm2.53,10.5c.16,2.78.28,5.45.42,8C226,177.17,204,183.82,178.69,176c.11-2.49.18-5.15.27-7.91,25.57,8.25,47.57.93,57.46-3.56Zm.64,12.38c.46,9,.76,16.17,1,20.78.07,1.69.26,3.68.51,5.86-11.57,4.93-34.54,11.77-61,3.7,0-3.7.11-7,.2-9.56.11-3.67.41-9.47.73-16.83,27.65,9.72,51.11-.14,58.55-4Zm2.55,35.61A71.12,71.12,0,0,1,240.1,226c-9.56,4.56-32.76,13.09-60.06,5.31a58.36,58.36,0,0,1-2.21-14c29.95,10.33,55.17-1.29,61.78-4.83Z"/><path class="cls-4" d="M238.68,230.34c1.87,16.42-58.32,25.18-57.55,3.44,0,0,23.45,15.06,57.55-3.44Z"/><path class="cls-5" d="M299.24,163.11s6.14-1,7.9-.22c2.36,1,4.21,12.57.88,14.91,0,0-3.24-2.25-6.15-1.57s-11.59-9.78-2.63-13.12Z"/><path class="cls-4" d="M217.27,139.94l6.31-6.89c34.93,17.82,31.48,26.64,77,28.92a18.12,18.12,0,0,1,.53,14.92s-62.84,15-83.24-15.35-.58-21.6-.58-21.6Z"/><path class="cls-22" d="M302.14,173.29a19,19,0,0,1-1.05,3.6s-62.84,15-83.24-15.35c-1.72-2.55-3.14-4.81-4.31-6.82A151.15,151.15,0,0,0,248,168.25a169.36,169.36,0,0,0,54.17,5Z"/><path class="cls-11" d="M208.73,87.15h0A14.26,14.26,0,0,0,194.09,101l-.39,12.93a14.27,14.27,0,0,0,13.82,14.65h0a14.27,14.27,0,0,0,14.65-13.81l.38-12.93a14.28,14.28,0,0,0-13.82-14.65Z"/><path class="cls-10" d="M223.47,104.79a4.67,4.67,0,0,0,1-2.71c.07-2.47.11-4,.2-6.8s-4.24-13.39-17.52-14-20.2,10.94-21.07,21.58,1.87,22.56,10,26.45,17.11,1.63,18.2-6.86c0,0,5.23-2.76,5.34-6.41s.23-8,.23-8a37.16,37.16,0,0,0,3.65-3.28Z"/><path class="cls-26" d="M197.44,100.23a5.35,5.35,0,1,0,5.18,5.5,5.35,5.35,0,0,0-5.18-5.5Z"/><path class="cls-10" d="M197.12,102.55c-6.31-.18-11.83,9.83-13.09,14.92-3.49,13.92-.89,26.1,12.36,30.73s15.17,7.36,17.77,13.27,11.39,13,20.71,3.15c10.22-10.77,8-35.27-14.18-33.39-7.74.66-16.4,1.59-21.26-7.24-4.09-7.45-2.4-12.42.09-15.42h0a3.54,3.54,0,0,0-2.4-6Z"/><path class="cls-20" d="M247.14,379c-2.83.89-7.36,6.76-7.55,9-.23,2.49.82,4.45,5,4.45h6.73c3,0,9.44.57,9.32-1.2a25.68,25.68,0,0,1-.18-2.86c1.16-7-5.43-14.48-13.3-9.42Z"/><path class="cls-13" d="M265.26,114s7.79,4,1,22S208.51,158.55,198.86,154s9.53-15.69,9.53-15.69S241.78,125,245.2,120c4.71-3.86,13.35-5.41,20.06-6Z"/><path class="cls-17" d="M170.43,119.41c3.82,1.07-.7-.53,13.46,4.08S230.49,131,245.2,120c0,0-24.47,48.78-71.16,29.94,0,0-9.92-10.67-8.8-23.47.38-4.15,2.5-6.2,5.19-7.09Z"/><path class="cls-18" d="M239.61,128.78C229.94,141.86,207.8,163.59,174,150a38.76,38.76,0,0,1-7.66-13.63c17.28,13.63,54.05,8.59,73.23-7.56Z"/><path class="cls-10" d="M302.16,90.31a7.06,7.06,0,0,0-.34-7.91,2.72,2.72,0,0,0-.47-4.89,5.37,5.37,0,0,0-4.23-8.69,3.29,3.29,0,0,0-.44.05,7.1,7.1,0,0,0-10.33-4.5,7.1,7.1,0,0,0-14.18.37,7.07,7.07,0,0,0-8.82,6.08A7.11,7.11,0,1,0,270.3,83.2c6.83,2.78,3.21,10.58,3.58,16.91a3,3,0,0,0-1,2.22,3.07,3.07,0,0,0,2.93,3l.14.16a3.06,3.06,0,0,0-.38,1.44,3.09,3.09,0,0,0,3.08,3.08,3,3,0,0,0,2.52-1.34,3.07,3.07,0,0,0,3.07,3,3,3,0,0,0,2.23-1,5.47,5.47,0,0,0,10.18-2.81,5.9,5.9,0,0,0-.18-1.4,3.05,3.05,0,0,0,2.2-2.92,3.39,3.39,0,0,0-.07-.64,10.5,10.5,0,0,0,1.24-.77,7.8,7.8,0,0,0,3.42-6.07A13.66,13.66,0,0,0,302.16,90.31Zm.59,5.77a7.33,7.33,0,0,1-3.21,5.68,9.47,9.47,0,0,1-1.08.68,3.84,3.84,0,0,0-.28-.53,7.1,7.1,0,0,0,2.91-10.23,8,8,0,0,0,.71-.83A12.78,12.78,0,0,1,302.75,96.08Z"/><path class="cls-5" d="M338,73.81h0a10,10,0,0,1,8.71,11.13l-2.44,19.76a10,10,0,0,1-11.15,8.67h0a10,10,0,0,1-8.71-11.13l2.44-19.76A10,10,0,0,1,338,73.81Z"/><path class="cls-11" d="M334.44,102.9l-1.64,13.36a20.25,20.25,0,0,0,14.69,2.31l.88-7.55c.69-6-13.55-11.13-13.93-8.12Z"/><path class="cls-20" d="M314.3,380s-4.31-4.5-9-.92c-2.41.89-6.25,6.76-6.43,9-.18,2.49.71,4.45,4.25,4.45h5.72c2.53,0,8,.57,7.94-1.2a28.19,28.19,0,0,1-.16-2.86c.32-2.25.23-7.45-2.28-8.5Z"/><path class="cls-10" d="M40.28,391.42H375.77a9.6,9.6,0,0,1,9.56,9.56h0a9.6,9.6,0,0,1-9.56,9.58H350.38a5.85,5.85,0,0,0-5.84,5.84h0a5.86,5.86,0,0,0,5.84,5.84h36.75a7.93,7.93,0,0,1,7.91,7.91h0a7.94,7.94,0,0,1-7.91,7.92H84.85a7.94,7.94,0,0,1-7.91-7.92h0a7.93,7.93,0,0,1,7.91-7.91H103.6a5.85,5.85,0,0,0,5.84-5.84h0a5.85,5.85,0,0,0-5.84-5.84H40.28A9.6,9.6,0,0,1,30.72,401h0a9.6,9.6,0,0,1,9.56-9.56Zm22.81,30.82h0a7.71,7.71,0,0,0-7.68,7.68v.48a7.7,7.7,0,0,0,7.68,7.67h0a7.69,7.69,0,0,0,7.67-7.67v-.48a7.7,7.7,0,0,0-7.67-7.68Z"/><path class="cls-9" d="M357.19,82.05c-2.1-8.45-8.54-15.16-22.84-14.83-3.24.18-9.6-1.55-7.71-5.75.2-.41.25-.7-.39-.7A9,9,0,0,0,318,65.68a12.44,12.44,0,0,0-2.83,8.84c0,.48.07,1,.14,1.42a13.57,13.57,0,0,0,3.33,7.84,9.53,9.53,0,0,0,7.77,2.71l.83-.08c-.29,1-1.15,4.63.57,5.24,0,0-.71,4.43-.66,5s1.61-1.74,1.61-1.74c1.33-8.34,3.65.35.62,5.09-4.2,6.52,10.2,21.48,20.23,13.73a7,7,0,0,0,.82-.76,17.63,17.63,0,0,0,4.66-6,36.26,36.26,0,0,0,3.67-14A22.57,22.57,0,0,0,357.19,82.05Zm-41.32-6.18c-.05-.44-.09-.9-.12-1.39a11.85,11.85,0,0,1,1.17-6.07c-1.88,6.54.5,15.21,6.37,17.32a8.28,8.28,0,0,1-4.23-2.33A13.06,13.06,0,0,1,315.87,75.87ZM358.27,93a35.75,35.75,0,0,1-3.62,13.75,21.43,21.43,0,0,1-2,3.23,43.66,43.66,0,0,0,5.22-24.21A24.44,24.44,0,0,1,358.27,93Z"/><path class="cls-9" d="M174.61,76.92a.25.25,0,0,0-.25-.28.28.28,0,0,0-.28.25c-.31,5.73-3,8-5.05,9a.22.22,0,0,0,0-.08A9.17,9.17,0,0,0,173.08,80c1.07-4.82-.72-11.17-7.12-12.4A6.09,6.09,0,0,0,156.73,66a7.09,7.09,0,0,0-11.79,2.07A7.1,7.1,0,0,0,132.27,71a5.51,5.51,0,0,0-6.09,9,6,6,0,0,0-.4,11,5.42,5.42,0,0,0-.51,2.31,5.5,5.5,0,0,0,.76,2.79,5.51,5.51,0,0,0,3.11,9.87,5.41,5.41,0,0,0,1.25,1.48,4.93,4.93,0,0,0,0,.55,5.51,5.51,0,0,0,9.57,3.74,4,4,0,0,0,5.89-.35,4.06,4.06,0,0,0,7.07-2.72,4.1,4.1,0,0,0-.21-1.21,3.52,3.52,0,0,0,.82-6.81,5.09,5.09,0,0,1,.4-7.56c1.39-1.12,3.23-.83,3.23,4.05v4.31a3.9,3.9,0,0,0,2.93-3.87,22.91,22.91,0,0,1,.78-6.9,5.28,5.28,0,0,0,8.22-4.22C171.23,85.5,174.27,83.1,174.61,76.92Z"/><path class="cls-9" d="M218.82,108.73a.26.26,0,0,1-.24-.27.25.25,0,0,1,.28-.25s5,.27,5-5.77a.27.27,0,0,1,.27-.27.27.27,0,0,1,.26.27c0,6.61-5.59,6.29-5.61,6.29Z"/><path class="cls-18" d="M248.35,195.76c2.45-13.94,5.84-12.25,21.29-12.43a203.41,203.41,0,0,0,26.64-2.43c.68-.09,1.32-.2,1.89-.29,2.44-.39,3.88-.68,3.88-.68a21.44,21.44,0,0,1,6.06,1.21c-.07-1.14-.13-2.27-.2-3.41a11.55,11.55,0,0,0-2.88-1.32,6.24,6.24,0,0,0-3.16-.18,1.53,1.53,0,0,1-.53,0c-.07.21-.16.42-.25.64,0,0-3.83.91-9.92,1.83-9,1.36-22.77,2.71-36.41,1.2a86.49,86.49,0,0,1-9.53-1.59c-.21,4.2-.44,8.25-.73,11.84a90.8,90.8,0,0,1-1.4,11.61c-2.27,10.19.76,11.68.76,11.68l.3.27a18.23,18.23,0,0,0,3.53,2.21c-.14-1.57-.25-3.3-.3-5.17a75.91,75.91,0,0,1,1-15Z"/><path class="cls-25" d="M309.5,146.07c-.18,1.31-.38,2.63-.58,3.93a45.46,45.46,0,0,0,7.7,3.44q1,.31,1.92.6a2.79,2.79,0,0,0,.34.09c.59.18,1.19.32,1.78.47,1.23.28,2.44.53,3.65.71a47.12,47.12,0,0,0,7.35.53c1,0,2,0,3.07-.11,1.37-.08,2.74-.24,4.07-.44.84-.13,1.68-.29,2.5-.45a48.49,48.49,0,0,0,10.91-3.57c.68-.33,1.34-.66,2-1a1.76,1.76,0,0,0,.2-.09l.92-.52c5.08-2.92,8.76-6.51,10.28-10,.05-.14.12-.27.18-.41.21-.52.41-1,.6-1.51a36.73,36.73,0,0,1-4.13,3.17c-.59.39-1.19.76-1.82,1.14a37.08,37.08,0,0,1-5.44,2.56,38,38,0,0,1-5,1.5q-1.2.26-2.46.48c-1.1.17-2.24.32-3.43.41l-.65,0c-1,.07-2,.11-3,.12a44.94,44.94,0,0,1-7.34-.53c-1.26-.2-2.49-.45-3.67-.73-.6-.14-1.19-.3-1.78-.46-.76-.23-1.51-.47-2.22-.72a46.42,46.42,0,0,1-4.51-1.86,43.6,43.6,0,0,1-5.18-3c-.6-.41-1.17-.82-1.71-1.21a35.32,35.32,0,0,1-3.44-2.92c-.1,1.75-.24,3.54-.44,5.36-.18,1.66-.39,3.33-.6,5Z"/><path class="cls-25" d="M240.57,151.92c2-.49,4-1.06,5.85-1.71.34-.1.68-.23,1-.33,1-.34,1.92-.7,2.85-1.07,7.62-3,13.64-7.12,15.83-12.41.05-.13.08-.25.14-.38.16-.44.32-.85.46-1.28-.14.13-.3.25-.44.36-5.56,4.32-12.66,7.69-19.64,10.22l-1.2.41c-1.62.57-3.22,1.08-4.79,1.55-3.2,1-6.26,1.76-9,2.36-7.25,1.61-12.23,2-11.59,1.47.25-.22.64-.52,1.17-.91a46.24,46.24,0,0,0,7-6.13,34.19,34.19,0,0,0,4.53-6.09c.48-.8.92-1.65,1.35-2.56-.66.73-1.35,1.44-2.07,2.17a64.48,64.48,0,0,1-5.12,4.63,55.89,55.89,0,0,1-15.32,9c-.6.23-1.23.45-1.85.66-.93.3-1.89.59-2.85.85a47,47,0,0,1-6.12,1.18c-.54.07-1.09.12-1.64.18a10.74,10.74,0,0,0,1.26.44,43.55,43.55,0,0,0,10.24,1.09c1.09,0,2.23,0,3.4,0,.36,0,.71,0,1.07,0a127.09,127.09,0,0,0,18.52-2.1c2.33-.44,4.65-1,6.93-1.55Z"/></svg>